<svg xmlns="http://www.w3.org/2000/svg" version="1.1" xmlns:xlink="http://www.w3.org/1999/xlink" width="512" height="512" x="0" y="0" viewBox="0 0 128 128" style="enable-background:new 0 0 512 512" xml:space="preserve" class=""><g><path d="M86.324 46.012A28.283 28.283 0 1 0 114.607 74.3a28.315 28.315 0 0 0-28.283-28.288zm0 53.066A24.783 24.783 0 1 1 111.107 74.3a24.812 24.812 0 0 1-24.783 24.778z" fill="#f0f4fb" opacity="1" data-original="#000000" class=""></path><path d="M88.556 38.312a9.729 9.729 0 0 0 1.2-4.681v-6.18a9.823 9.823 0 0 0-9.821-9.8H26.759a9.824 9.824 0 0 0-9.821 9.805v6.18a9.749 9.749 0 0 0 2.311 6.305h-3.812a9.831 9.831 0 0 0-9.82 9.82v6.182a9.815 9.815 0 0 0 9.209 9.773 9.781 9.781 0 0 0-2.34 6.352v6.181a9.793 9.793 0 0 0 4.231 8.051 9.818 9.818 0 0 0-4.231 8.07v6.165a9.824 9.824 0 0 0 9.805 9.82h53.2a9.721 9.721 0 0 0 3.657-.72 36.057 36.057 0 1 0 9.413-71.322zm-68.118-4.681v-6.18a6.32 6.32 0 0 1 6.321-6.3h53.178a6.32 6.32 0 0 1 6.321 6.305v6.18a6.23 6.23 0 0 1-2.1 4.676 35.887 35.887 0 0 0-8.765 1.629H26.759a6.32 6.32 0 0 1-6.321-6.31zM9.117 55.938v-6.182a6.327 6.327 0 0 1 6.32-6.32H67.69a36.246 36.246 0 0 0-15.345 18.806H15.437a6.319 6.319 0 0 1-6.32-6.304zm6.869 22.306v-6.181a6.32 6.32 0 0 1 6.305-6.321H51.3a35.94 35.94 0 0 0 .46 18.806H22.291a6.311 6.311 0 0 1-6.305-6.304zm6.305 28.61a6.319 6.319 0 0 1-6.3-6.32v-6.165a6.32 6.32 0 0 1 6.305-6.321H53a36.273 36.273 0 0 0 17.84 18.806zm64.033 0a32.558 32.558 0 0 1-1.593-65.077 1.809 1.809 0 0 0 .285-.007 31.49 31.49 0 0 1 1.308-.034 32.559 32.559 0 0 1 0 65.118z" fill="#f0f4fb" opacity="1" data-original="#000000" class=""></path><path d="M84.35 64.09h7.855a1.75 1.75 0 1 0 0-3.5h-4.131v-5.678a1.75 1.75 0 1 0-3.5 0v5.678h-.224a5.662 5.662 0 0 0-5.657 5.657v6.379a3.424 3.424 0 0 0 3.419 3.419h8.343v6.3A2.159 2.159 0 0 1 88.3 84.5h-7.857a1.75 1.75 0 0 0 0 3.5h4.131v5.678a1.75 1.75 0 0 0 3.5 0V88h.226a5.663 5.663 0 0 0 5.656-5.657v-6.378a3.424 3.424 0 0 0-3.419-3.42h-8.344v-6.3a2.159 2.159 0 0 1 2.157-2.155z" fill="#f0f4fb" opacity="1" data-original="#000000" class=""></path></g></svg>