<svg xmlns="http://www.w3.org/2000/svg" version="1.1" xmlns:xlink="http://www.w3.org/1999/xlink" width="512" height="512" x="0" y="0" viewBox="0 0 64 64" style="enable-background:new 0 0 512 512" xml:space="preserve" class=""><g><linearGradient id="a"><stop offset="0" stop-color="#ffffd5"></stop><stop offset="1" stop-color="#ffe59a"></stop></linearGradient><linearGradient xlink:href="#a" id="b" x1="0" x2="64" y1="32" y2="32" gradientUnits="userSpaceOnUse"></linearGradient><linearGradient xlink:href="#a" id="c" x1="4" x2="60" y1="32" y2="32" gradientUnits="userSpaceOnUse"></linearGradient><path d="m58.33 26.07-4.18-.52c-.47-1.62-1.12-3.18-1.93-4.65l2.58-3.32c.6-.77.46-1.93-.32-2.68l-5.37-5.37c-.77-.79-1.93-.93-2.69-.33l-3.32 2.58c-1.47-.81-3.03-1.46-4.65-1.93l-.52-4.18C37.81 4.72 36.9 4 35.81 4H28.2c-1.09 0-2.01.72-2.13 1.67l-.52 4.18c-1.62.47-3.18 1.12-4.65 1.93L17.58 9.2c-.77-.6-1.93-.46-2.69.32l-5.37 5.37c-.79.77-.93 1.92-.33 2.69l2.59 3.32c-.81 1.47-1.46 3.03-1.93 4.65l-4.18.52C4.72 26.19 4 27.1 4 28.19v7.61c0 1.09.72 2.01 1.67 2.13l4.18.52c.47 1.62 1.12 3.18 1.93 4.65L9.2 46.42c-.6.77-.46 1.93.32 2.68l5.37 5.37c.77.79 1.92.93 2.69.33l3.32-2.58c1.47.81 3.03 1.46 4.65 1.93l.52 4.18c.12.95 1.03 1.67 2.12 1.67h7.61c1.09 0 2.01-.72 2.13-1.67l.52-4.18c1.62-.47 3.18-1.12 4.65-1.93l3.32 2.58c.77.6 1.92.46 2.69-.32l5.37-5.37c.79-.77.93-1.92.33-2.69l-2.59-3.32c.81-1.47 1.46-3.03 1.93-4.65l4.18-.52c.95-.12 1.67-1.03 1.67-2.12V28.2c0-1.1-.72-2.01-1.67-2.13zm-.14 9.74c0 .21-.09.33-.08.34l-4.78.59c-.37.05-.67.31-.76.67-.49 1.87-1.23 3.66-2.21 5.33a.89.89 0 0 0 .07 1.01l2.94 3.77c.01.03-.01.18-.16.32l-5.39 5.39c-.13.14-.28.16-.29.16l-3.79-2.96a.89.89 0 0 0-1.01-.07c-1.66.97-3.46 1.72-5.33 2.21a.91.91 0 0 0-.67.76l-.58 4.74c-.02.03-.14.12-.35.12h-7.61c-.2 0-.32-.08-.33-.08l-.59-4.78a.897.897 0 0 0-.67-.76c-1.87-.49-3.66-1.23-5.33-2.21a.89.89 0 0 0-1.01.07l-3.77 2.94c-.03.01-.18-.01-.32-.16l-5.39-5.39a.524.524 0 0 1-.16-.29l2.96-3.79c.23-.29.25-.69.07-1.01a21.44 21.44 0 0 1-2.21-5.33.91.91 0 0 0-.76-.67l-4.74-.58c-.03-.02-.12-.14-.12-.35v-7.61c0-.21.09-.33.08-.34l4.78-.59c.37-.05.67-.31.76-.67.49-1.87 1.23-3.66 2.21-5.33a.89.89 0 0 0-.07-1.01l-2.94-3.77c-.01-.03.01-.18.16-.32l5.39-5.39c.13-.14.28-.16.29-.16l3.79 2.96c.29.23.69.25 1.01.07 1.66-.97 3.46-1.72 5.33-2.21.36-.09.62-.4.67-.76l.58-4.74c.02-.03.14-.12.35-.12h7.61c.21 0 .34.09.34.08l.59 4.78c.05.37.31.67.67.76 1.87.49 3.66 1.23 5.33 2.21.32.19.72.16 1.01-.07l3.77-2.94c.03-.01.18.01.32.16l5.39 5.39c.14.14.16.28.16.29l-2.96 3.79c-.23.29-.25.69-.07 1.01a21.44 21.44 0 0 1 2.21 5.33c.09.36.4.62.76.67l4.74.58c.03.02.12.14.12.35v7.61z" fill="#f0f4fb" opacity="1" data-original="#000000" class=""></path><path d="M32 16.32c-8.65 0-15.68 7.04-15.68 15.68S23.35 47.68 32 47.68 47.68 40.65 47.68 32 40.65 16.32 32 16.32zm0 29.56c-7.65 0-13.88-6.23-13.88-13.88S24.35 18.12 32 18.12 45.88 24.35 45.88 32 39.65 45.88 32 45.88z" fill="#f0f4fb" opacity="1" data-original="#000000" class=""></path></g></svg>